<svg width="40" height="40" viewBox="0 0 40 40" fill="none" xmlns="http://www.w3.org/2000/svg">
<g clip-path="url(#clip0_1_53)">
<path d="M23.43 5.68333C20.4183 6.96166 18.4383 9.77166 18.3367 12.9833L18.3333 13.2867L17.9283 13.2483C13.9417 12.8 10.4317 10.7283 8.02167 7.36333C7.85848 7.13527 7.64038 6.95208 7.38757 6.83072C7.13476 6.70935 6.85542 6.65374 6.57541 6.66903C6.29539 6.68432 6.02376 6.77001 5.78567 6.91818C5.54758 7.06635 5.35072 7.2722 5.21333 7.51666L5.05167 7.82666L4.97 7.99166C3.77167 10.4667 2.98667 13.475 3.275 16.6633L3.325 17.1183C3.79667 20.89 5.825 24.1433 9.62333 26.5833L9.91167 26.7617L9.77667 26.8333C7.585 27.9383 5.58 28.42 3.39833 28.3333C1.63833 28.2667 0.988334 30.62 2.535 31.4633C8.53167 34.7317 14.97 35.74 20.5217 34.13C27.2883 32.1633 32.4417 27.0917 34.4133 20.075L34.625 19.25C35.0217 17.595 35.245 15.9067 35.2933 14.21L35.2983 13.6567L35.9533 12.3583L36.6867 10.9217L37.0433 10.1983L37.24 9.78666C37.6817 8.845 38 8.065 38.1967 7.40333L38.22 7.31L38.2333 7.28C38.6 6.29166 37.9567 5.01666 36.665 5.01666L36.4617 5.02833C36.33 5.04452 36.2007 5.07641 36.0767 5.12333L35.9333 5.18666C35.4577 5.41765 34.9678 5.61805 34.4667 5.78666L33.8733 5.97833L33.4217 6.11166L32.135 6.46833C29.9083 4.605 26.895 4.37833 23.7817 5.545L23.43 5.68333Z" fill="#2F98C2"/>
</g>
<defs>
<clipPath id="clip0_1_53">
<rect width="40" height="40" fill="white"/>
</clipPath>
</defs>
</svg>
