<svg width="50" height="50" viewBox="0 0 50 50" fill="none" xmlns="http://www.w3.org/2000/svg">
<path id="Vector" d="M4.6394 0H7.17517C7.40763 0.00193575 7.63745 0.0513994 7.85146 0.145559C8.06547 0.239719 8.25948 0.376727 8.42236 0.548738C8.58525 0.720749 8.71382 0.924387 8.80072 1.14799C8.88762 1.3716 8.93113 1.61078 8.92878 1.85185C8.92878 2.87407 8.14304 3.7037 7.17695 3.7037H4.46439C3.60009 3.7037 3.57151 4.16667 3.57151 4.62963V9.25926H3.58401C3.57667 10.8716 3.57667 12.484 3.58401 14.0963L3.57866 14.8148H5.53038e-06V4.83519C-0.00189389 3.55638 0.485548 2.32903 1.35535 1.42252C2.22515 0.516017 3.40624 0.00441324 4.6394 0ZM0.0321489 16.6667C0.33037 23.8407 4.25546 28.7667 10.7145 29.5278V38.1889C10.7145 44.6907 15.3271 50 21.4291 50C27.531 50 32.1436 44.7093 32.1436 38.1889V31.4815C32.1436 27.6185 33.7579 25.9259 37.5008 25.9259C40.5902 25.9259 42.3456 27.0556 42.7617 29.9815C41.5771 30.4415 40.5876 31.3212 39.9682 32.4649C39.3489 33.6087 39.1396 34.9428 39.3775 36.2311C39.6154 37.5195 40.2851 38.679 41.268 39.5046C42.251 40.3302 43.4839 40.7686 44.7486 40.7423C46.0133 40.7159 47.2282 40.2265 48.1784 39.3606C49.1286 38.4948 49.7528 37.3083 49.9406 36.011C50.1284 34.7138 49.8677 33.3895 49.2045 32.2725C48.5414 31.1555 47.5186 30.3177 46.3171 29.9074C45.6742 25.4741 42.3045 22.25 37.5008 22.2222C32.2722 22.1907 28.5721 25.9259 28.5721 31.6667V38.1889C28.5721 42.4204 25.3899 46.2963 21.4291 46.2963C17.4683 46.2963 14.286 42.4204 14.286 38.1889V29.5278C20.7505 28.7741 24.672 23.8463 24.9791 16.6667H21.3505C20.7933 22.8389 17.3915 25.9259 12.5074 25.9259C7.62339 25.9259 4.23939 22.8389 3.66437 16.6667H0.0321489ZM44.6439 37.963C43.9334 37.963 43.2521 37.6703 42.7498 37.1494C42.2474 36.6284 41.9652 35.9219 41.9652 35.1852C41.9652 34.4485 42.2474 33.7419 42.7498 33.221C43.2521 32.7001 43.9334 32.4074 44.6439 32.4074C45.3543 32.4074 46.0356 32.7001 46.5379 33.221C47.0403 33.7419 47.3225 34.4485 47.3225 35.1852C47.3225 35.9219 47.0403 36.6284 46.5379 37.1494C46.0356 37.6703 45.3543 37.963 44.6439 37.963ZM21.4291 14.8148H25.0006C25.0059 13.1259 25.0131 9.71482 25.0006 9.29074V4.83333C25.002 3.55485 24.5143 2.32798 23.6446 1.42187C22.7748 0.515762 21.594 0.00441279 20.3612 0H17.8254C17.5929 0.00193575 17.3631 0.0513994 17.1491 0.145559C16.9351 0.239719 16.7411 0.376727 16.5782 0.548738C16.4153 0.720749 16.2867 0.924387 16.1999 1.14799C16.113 1.3716 16.0694 1.61078 16.0718 1.85185C16.0718 2.87407 16.8575 3.7037 17.8236 3.7037H20.5362C21.4005 3.7037 21.4291 4.16667 21.4291 4.62963V14.8148Z" fill="#2F98C2"/>
</svg>
